<svg xmlns="http://www.w3.org/2000/svg" x="0px" y="0px"
width="40" height="40"
viewBox="0 0 172 172"
style=" fill:#000000;"><g fill="none" fill-rule="nonzero" stroke="none" stroke-width="1" stroke-linecap="butt" stroke-linejoin="miter" stroke-miterlimit="10" stroke-dasharray="" stroke-dashoffset="0" font-family="none" font-weight="none" font-size="none" text-anchor="none" style="mix-blend-mode: normal"><path d="M0,172v-172h172v172z" fill="none"></path><path d="M0,86c0,-47.49649 38.50351,-86 86,-86c47.49649,0 86,38.50351 86,86c0,47.49649 -38.50351,86 -86,86c-47.49649,0 -86,-38.50351 -86,-86zM86,168.56c45.59663,0 82.56,-36.96337 82.56,-82.56c0,-45.59663 -36.96337,-82.56 -82.56,-82.56c-45.59663,0 -82.56,36.96337 -82.56,82.56c0,45.59663 36.96337,82.56 82.56,82.56z" fill="#858585"></path><g fill="#858585"><path d="M109.00142,73.9599h-14.147v-8.02667c0,-4.14176 0.33712,-6.75043 6.27284,-6.75043h7.49691v-12.7624c-3.64812,-0.37725 -7.31631,-0.56187 -10.98851,-0.55384c-10.88817,0 -18.83457,6.65009 -18.83457,18.85865v9.23468h-12.04v16.05333l12.04,-0.00401v36.12401h16.05333v-36.13204l12.30488,-0.00401z"></path></g><path d="M86,172c-47.49649,0 -86,-38.50351 -86,-86v0c0,-47.49649 38.50351,-86 86,-86v0c47.49649,0 86,38.50351 86,86v0c0,47.49649 -38.50351,86 -86,86z" fill="none"></path><path d="M86,168.56c-45.59663,0 -82.56,-36.96337 -82.56,-82.56v0c0,-45.59663 36.96337,-82.56 82.56,-82.56v0c45.59663,0 82.56,36.96337 82.56,82.56v0c0,45.59663 -36.96337,82.56 -82.56,82.56z" fill="none"></path><path d="M86,172c-47.49649,0 -86,-38.50351 -86,-86v0c0,-47.49649 38.50351,-86 86,-86v0c47.49649,0 86,38.50351 86,86v0c0,47.49649 -38.50351,86 -86,86z" fill="none"></path><path d="M86,168.56c-45.59663,0 -82.56,-36.96337 -82.56,-82.56v0c0,-45.59663 36.96337,-82.56 82.56,-82.56v0c45.59663,0 82.56,36.96337 82.56,82.56v0c0,45.59663 -36.96337,82.56 -82.56,82.56z" fill="none"></path></g></svg>