<svg xmlns="http://www.w3.org/2000/svg" x="0px" y="0px"
width="40" height="40"
viewBox="0 0 172 172" style="fill:#000000;">
<g fill="none" fill-rule="nonzero" stroke="none" stroke-width="1" stroke-linecap="butt" stroke-linejoin="miter" stroke-miterlimit="10" stroke-dasharray="" stroke-dashoffset="0" font-family="none" font-weight="none" font-size="none" text-anchor="none" style="mix-blend-mode: normal"><path d="M0,172v-172h172v172z" fill="none"></path><path d="M0,86c0,-47.49649 38.50351,-86 86,-86c47.49649,0 86,38.50351 86,86c0,47.49649 -38.50351,86 -86,86c-47.49649,0 -86,-38.50351 -86,-86zM86,168.56c45.59663,0 82.56,-36.96337 82.56,-82.56c0,-45.59663 -36.96337,-82.56 -82.56,-82.56c-45.59663,0 -82.56,36.96337 -82.56,82.56c0,45.59663 36.96337,82.56 82.56,82.56z" fill="#09285e"></path><g fill="#09285e"><path d="M117.42351,66.5108c-2.31338,1.02736 -4.79838,1.71872 -7.40667,2.03055c2.66389,-1.59543 4.70652,-4.12153 5.66862,-7.13351c-2.48984,1.47698 -5.25042,2.55027 -8.18988,3.13043c-2.35205,-2.50676 -5.70246,-4.07319 -9.41063,-4.07319c-7.12143,0 -12.89399,5.77498 -12.89399,12.89399c0,1.01044 0.11603,1.99671 0.33359,2.93704c-10.71598,-0.53665 -20.21605,-5.67103 -26.57844,-13.47415c-1.10713,1.90485 -1.74289,4.11911 -1.74289,6.48567c0,4.47204 2.2747,8.41953 5.73389,10.73049c-2.11274,-0.06768 -4.10219,-0.64784 -5.84025,-1.61235c0,0.0556 0,0.10636 0,0.16196c0,6.24877 4.44304,11.46052 10.34372,12.64259c-1.08054,0.29491 -2.22152,0.45204 -3.39875,0.45204c-0.82914,0 -1.63894,-0.08219 -2.42457,-0.22965c1.64136,5.1223 6.40348,8.85223 12.04551,8.95617c-4.41161,3.45919 -9.97145,5.52116 -16.01475,5.52116c-1.03945,0 -2.06681,-0.06043 -3.07725,-0.1813c5.70729,3.65741 12.48304,5.7919 19.76643,5.7919c23.71875,0 36.68526,-19.64798 36.68526,-36.68768c0,-0.5584 -0.01209,-1.11438 -0.03626,-1.66795c2.52127,-1.82024 4.70894,-4.09011 6.43733,-6.67422z"></path></g><path d="M86,172c-47.49649,0 -86,-38.50351 -86,-86v0c0,-47.49649 38.50351,-86 86,-86v0c47.49649,0 86,38.50351 86,86v0c0,47.49649 -38.50351,86 -86,86z" fill="none"></path><path d="M86,168.56c-45.59663,0 -82.56,-36.96337 -82.56,-82.56v0c0,-45.59663 36.96337,-82.56 82.56,-82.56v0c45.59663,0 82.56,36.96337 82.56,82.56v0c0,45.59663 -36.96337,82.56 -82.56,82.56z" fill="none"></path><path d="M86,167.7c-45.12166,0 -81.7,-36.57834 -81.7,-81.7v0c0,-45.12166 36.57834,-81.7 81.7,-81.7h0c45.12166,0 81.7,36.57834 81.7,81.7v0c0,45.12166 -36.57834,81.7 -81.7,81.7z" fill="none"></path><path d="M86,164.26c-43.2218,0 -78.26,-35.0382 -78.26,-78.26v0c0,-43.2218 35.0382,-78.26 78.26,-78.26h0c43.2218,0 78.26,35.0382 78.26,78.26v0c0,43.2218 -35.0382,78.26 -78.26,78.26z" fill="none"></path><path d="M86,166.84c-44.6467,0 -80.84,-36.1933 -80.84,-80.84v0c0,-44.6467 36.1933,-80.84 80.84,-80.84v0c44.6467,0 80.84,36.1933 80.84,80.84v0c0,44.6467 -36.1933,80.84 -80.84,80.84z" fill="none"></path><path d="M86,163.4c-42.74684,0 -77.4,-34.65316 -77.4,-77.4v0c0,-42.74684 34.65316,-77.4 77.4,-77.4v0c42.74684,0 77.4,34.65316 77.4,77.4v0c0,42.74684 -34.65316,77.4 -77.4,77.4z" fill="none"></path><path d="M86,165.98c-44.17173,0 -79.98,-35.80827 -79.98,-79.98v0c0,-44.17173 35.80827,-79.98 79.98,-79.98h0c44.17173,0 79.98,35.80827 79.98,79.98v0c0,44.17173 -35.80827,79.98 -79.98,79.98z" fill="none"></path><path d="M86,162.54c-42.27187,0 -76.54,-34.26813 -76.54,-76.54v0c0,-42.27187 34.26813,-76.54 76.54,-76.54h0c42.27187,0 76.54,34.26813 76.54,76.54v0c0,42.27187 -34.26813,76.54 -76.54,76.54z" fill="none"></path><path d="M86,165.12c-43.69677,0 -79.12,-35.42323 -79.12,-79.12v0c0,-43.69677 35.42323,-79.12 79.12,-79.12v0c43.69677,0 79.12,35.42323 79.12,79.12v0c0,43.69677 -35.42323,79.12 -79.12,79.12z" fill="none"></path><path d="M86,161.68c-41.79691,0 -75.68,-33.88309 -75.68,-75.68v0c0,-41.79691 33.88309,-75.68 75.68,-75.68v0c41.79691,0 75.68,33.88309 75.68,75.68v0c0,41.79691 -33.88309,75.68 -75.68,75.68z" fill="none"></path><path d="M86,163.4c-42.74684,0 -77.4,-34.65316 -77.4,-77.4v0c0,-42.74684 34.65316,-77.4 77.4,-77.4v0c42.74684,0 77.4,34.65316 77.4,77.4v0c0,42.74684 -34.65316,77.4 -77.4,77.4z" fill="none"></path><path d="M86,159.96c-40.84698,0 -73.96,-33.11302 -73.96,-73.96v0c0,-40.84698 33.11302,-73.96 73.96,-73.96v0c40.84698,0 73.96,33.11302 73.96,73.96v0c0,40.84698 -33.11302,73.96 -73.96,73.96z" fill="none"></path><path d="M86,162.54c-42.27187,0 -76.54,-34.26813 -76.54,-76.54v0c0,-42.27187 34.26813,-76.54 76.54,-76.54h0c42.27187,0 76.54,34.26813 76.54,76.54v0c0,42.27187 -34.26813,76.54 -76.54,76.54z" fill="none"></path><path d="M86,159.1c-40.37202,0 -73.1,-32.72798 -73.1,-73.1v0c0,-40.37202 32.72798,-73.1 73.1,-73.1h0c40.37202,0 73.1,32.72798 73.1,73.1v0c0,40.37202 -32.72798,73.1 -73.1,73.1z" fill="none"></path><path d="M86,161.68c-41.79691,0 -75.68,-33.88309 -75.68,-75.68v0c0,-41.79691 33.88309,-75.68 75.68,-75.68v0c41.79691,0 75.68,33.88309 75.68,75.68v0c0,41.79691 -33.88309,75.68 -75.68,75.68z" fill="none"></path><path d="M86,158.24c-39.89705,0 -72.24,-32.34295 -72.24,-72.24v0c0,-39.89705 32.34295,-72.24 72.24,-72.24v0c39.89705,0 72.24,32.34295 72.24,72.24v0c0,39.89705 -32.34295,72.24 -72.24,72.24z" fill="none"></path><path d="M86,160.82c-41.32194,0 -74.82,-33.49806 -74.82,-74.82v0c0,-41.32194 33.49806,-74.82 74.82,-74.82v0c41.32194,0 74.82,33.49806 74.82,74.82v0c0,41.32194 -33.49806,74.82 -74.82,74.82z" fill="none"></path><path d="M86,157.38c-39.42209,0 -71.38,-31.95791 -71.38,-71.38v0c0,-39.42209 31.95791,-71.38 71.38,-71.38v0c39.42209,0 71.38,31.95791 71.38,71.38v0c0,39.42209 -31.95791,71.38 -71.38,71.38z" fill="none"></path><path d="M86,159.1c-40.37202,0 -73.1,-32.72798 -73.1,-73.1v0c0,-40.37202 32.72798,-73.1 73.1,-73.1v0c40.37202,0 73.1,32.72798 73.1,73.1v0c0,40.37202 -32.72798,73.1 -73.1,73.1z" fill="none"></path><path d="M86,155.66c-38.47216,0 -69.66,-31.18784 -69.66,-69.66v0c0,-38.47216 31.18784,-69.66 69.66,-69.66v0c38.47216,0 69.66,31.18784 69.66,69.66v0c0,38.47216 -31.18784,69.66 -69.66,69.66z" fill="none"></path><path d="M86,158.24c-39.89705,0 -72.24,-32.34295 -72.24,-72.24v0c0,-39.89705 32.34295,-72.24 72.24,-72.24h0c39.89705,0 72.24,32.34295 72.24,72.24v0c0,39.89705 -32.34295,72.24 -72.24,72.24z" fill="none"></path><path d="M86,154.8c-37.99719,0 -68.8,-30.80281 -68.8,-68.8v0c0,-37.99719 30.80281,-68.8 68.8,-68.8h0c37.99719,0 68.8,30.80281 68.8,68.8v0c0,37.99719 -30.80281,68.8 -68.8,68.8z" fill="none"></path><path d="M86,157.38c-39.42209,0 -71.38,-31.95791 -71.38,-71.38v0c0,-39.42209 31.95791,-71.38 71.38,-71.38v0c39.42209,0 71.38,31.95791 71.38,71.38v0c0,39.42209 -31.95791,71.38 -71.38,71.38z" fill="none"></path><path d="M86,153.94c-37.52223,0 -67.94,-30.41777 -67.94,-67.94v0c0,-37.52223 30.41777,-67.94 67.94,-67.94v0c37.52223,0 67.94,30.41777 67.94,67.94v0c0,37.52223 -30.41777,67.94 -67.94,67.94z" fill="none"></path><path d="M86,158.24c-39.89705,0 -72.24,-32.34295 -72.24,-72.24v0c0,-39.89705 32.34295,-72.24 72.24,-72.24h0c39.89705,0 72.24,32.34295 72.24,72.24v0c0,39.89705 -32.34295,72.24 -72.24,72.24z" fill="none"></path><path d="M86,154.8c-37.99719,0 -68.8,-30.80281 -68.8,-68.8v0c0,-37.99719 30.80281,-68.8 68.8,-68.8h0c37.99719,0 68.8,30.80281 68.8,68.8v0c0,37.99719 -30.80281,68.8 -68.8,68.8z" fill="none"></path><path d="M86,159.1c-40.37202,0 -73.1,-32.72798 -73.1,-73.1v0c0,-40.37202 32.72798,-73.1 73.1,-73.1v0c40.37202,0 73.1,32.72798 73.1,73.1v0c0,40.37202 -32.72798,73.1 -73.1,73.1z" fill="none"></path><path d="M86,155.66c-38.47216,0 -69.66,-31.18784 -69.66,-69.66v0c0,-38.47216 31.18784,-69.66 69.66,-69.66v0c38.47216,0 69.66,31.18784 69.66,69.66v0c0,38.47216 -31.18784,69.66 -69.66,69.66z" fill="none"></path><path d="M86,160.82c-41.32194,0 -74.82,-33.49806 -74.82,-74.82v0c0,-41.32194 33.49806,-74.82 74.82,-74.82v0c41.32194,0 74.82,33.49806 74.82,74.82v0c0,41.32194 -33.49806,74.82 -74.82,74.82z" fill="none"></path><path d="M86,157.38c-39.42209,0 -71.38,-31.95791 -71.38,-71.38v0c0,-39.42209 31.95791,-71.38 71.38,-71.38v0c39.42209,0 71.38,31.95791 71.38,71.38v0c0,39.42209 -31.95791,71.38 -71.38,71.38z" fill="none"></path><path d="M86,161.68c-41.79691,0 -75.68,-33.88309 -75.68,-75.68v0c0,-41.79691 33.88309,-75.68 75.68,-75.68v0c41.79691,0 75.68,33.88309 75.68,75.68v0c0,41.79691 -33.88309,75.68 -75.68,75.68z" fill="none"></path><path d="M86,158.24c-39.89705,0 -72.24,-32.34295 -72.24,-72.24v0c0,-39.89705 32.34295,-72.24 72.24,-72.24v0c39.89705,0 72.24,32.34295 72.24,72.24v0c0,39.89705 -32.34295,72.24 -72.24,72.24z" fill="none"></path><path d="M86,163.4c-42.74684,0 -77.4,-34.65316 -77.4,-77.4v0c0,-42.74684 34.65316,-77.4 77.4,-77.4v0c42.74684,0 77.4,34.65316 77.4,77.4v0c0,42.74684 -34.65316,77.4 -77.4,77.4z" fill="none"></path><path d="M86,159.96c-40.84698,0 -73.96,-33.11302 -73.96,-73.96v0c0,-40.84698 33.11302,-73.96 73.96,-73.96v0c40.84698,0 73.96,33.11302 73.96,73.96v0c0,40.84698 -33.11302,73.96 -73.96,73.96z" fill="none"></path><path d="M86,164.26c-43.2218,0 -78.26,-35.0382 -78.26,-78.26v0c0,-43.2218 35.0382,-78.26 78.26,-78.26h0c43.2218,0 78.26,35.0382 78.26,78.26v0c0,43.2218 -35.0382,78.26 -78.26,78.26z" fill="none"></path><path d="M86,160.82c-41.32194,0 -74.82,-33.49806 -74.82,-74.82v0c0,-41.32194 33.49806,-74.82 74.82,-74.82h0c41.32194,0 74.82,33.49806 74.82,74.82v0c0,41.32194 -33.49806,74.82 -74.82,74.82z" fill="none"></path><path d="M86,165.12c-43.69677,0 -79.12,-35.42323 -79.12,-79.12v0c0,-43.69677 35.42323,-79.12 79.12,-79.12v0c43.69677,0 79.12,35.42323 79.12,79.12v0c0,43.69677 -35.42323,79.12 -79.12,79.12z" fill="none"></path><path d="M86,161.68c-41.79691,0 -75.68,-33.88309 -75.68,-75.68v0c0,-41.79691 33.88309,-75.68 75.68,-75.68v0c41.79691,0 75.68,33.88309 75.68,75.68v0c0,41.79691 -33.88309,75.68 -75.68,75.68z" fill="none"></path><path d="M86,165.98c-44.17173,0 -79.98,-35.80827 -79.98,-79.98v0c0,-44.17173 35.80827,-79.98 79.98,-79.98h0c44.17173,0 79.98,35.80827 79.98,79.98v0c0,44.17173 -35.80827,79.98 -79.98,79.98z" fill="none"></path><path d="M86,162.54c-42.27187,0 -76.54,-34.26813 -76.54,-76.54v0c0,-42.27187 34.26813,-76.54 76.54,-76.54h0c42.27187,0 76.54,34.26813 76.54,76.54v0c0,42.27187 -34.26813,76.54 -76.54,76.54z" fill="none">
</path><path d="M86,166.84c-44.6467,0 -80.84,-36.1933 -80.84,-80.84v0c0,-44.6467 36.1933,-80.84 80.84,-80.84v0c44.6467,0 80.84,36.1933 80.84,80.84v0c0,44.6467 -36.1933,80.84 -80.84,80.84z" fill="none"></path><path d="M86,163.4c-42.74684,0 -77.4,-34.65316 -77.4,-77.4v0c0,-42.74684 34.65316,-77.4 77.4,-77.4v0c42.74684,0 77.4,34.65316 77.4,77.4v0c0,42.74684 -34.65316,77.4 -77.4,77.4z" fill="none"></path><path d="M86,167.7c-45.12166,0 -81.7,-36.57834 -81.7,-81.7v0c0,-45.12166 36.57834,-81.7 81.7,-81.7h0c45.12166,0 81.7,36.57834 81.7,81.7v0c0,45.12166 -36.57834,81.7 -81.7,81.7z" fill="none"></path><path d="M86,164.26c-43.2218,0 -78.26,-35.0382 -78.26,-78.26v0c0,-43.2218 35.0382,-78.26 78.26,-78.26h0c43.2218,0 78.26,35.0382 78.26,78.26v0c0,43.2218 -35.0382,78.26 -78.26,78.26z" fill="none"></path><path d="M86,168.56c-45.59663,0 -82.56,-36.96337 -82.56,-82.56v0c0,-45.59663 36.96337,-82.56 82.56,-82.56v0c45.59663,0 82.56,36.96337 82.56,82.56v0c0,45.59663 -36.96337,82.56 -82.56,82.56z" fill="none"></path><path d="M86,165.12c-43.69677,0 -79.12,-35.42323 -79.12,-79.12v0c0,-43.69677 35.42323,-79.12 79.12,-79.12v0c43.69677,0 79.12,35.42323 79.12,79.12v0c0,43.69677 -35.42323,79.12 -79.12,79.12z" fill="none"></path><path d="M86,169.42c-46.07159,0 -83.42,-37.34841 -83.42,-83.42v0c0,-46.07159 37.34841,-83.42 83.42,-83.42h0c46.07159,0 83.42,37.34841 83.42,83.42v0c0,46.07159 -37.34841,83.42 -83.42,83.42z" fill="none"></path><path d="M86,165.98c-44.17173,0 -79.98,-35.80827 -79.98,-79.98v0c0,-44.17173 35.80827,-79.98 79.98,-79.98h0c44.17173,0 79.98,35.80827 79.98,79.98v0c0,44.17173 -35.80827,79.98 -79.98,79.98z" fill="none"></path><path d="M86,170.28c-46.54656,0 -84.28,-37.73344 -84.28,-84.28v0c0,-46.54656 37.73344,-84.28 84.28,-84.28v0c46.54656,0 84.28,37.73344 84.28,84.28v0c0,46.54656 -37.73344,84.28 -84.28,84.28z" fill="none"></path><path d="M86,166.84c-44.6467,0 -80.84,-36.1933 -80.84,-80.84v0c0,-44.6467 36.1933,-80.84 80.84,-80.84v0c44.6467,0 80.84,36.1933 80.84,80.84v0c0,44.6467 -36.1933,80.84 -80.84,80.84z" fill="none"></path><path d="M86,171.14c-47.02152,0 -85.14,-38.11848 -85.14,-85.14v0c0,-47.02152 38.11848,-85.14 85.14,-85.14h0c47.02152,0 85.14,38.11848 85.14,85.14v0c0,47.02152 -38.11848,85.14 -85.14,85.14z" fill="none"></path><path d="M86,167.7c-45.12166,0 -81.7,-36.57834 -81.7,-81.7v0c0,-45.12166 36.57834,-81.7 81.7,-81.7h0c45.12166,0 81.7,36.57834 81.7,81.7v0c0,45.12166 -36.57834,81.7 -81.7,81.7z" fill="none"></path><path d="M86,172c-47.49649,0 -86,-38.50351 -86,-86v0c0,-47.49649 38.50351,-86 86,-86v0c47.49649,0 86,38.50351 86,86v0c0,47.49649 -38.50351,86 -86,86z" fill="none"></path><path d="M86,168.56c-45.59663,0 -82.56,-36.96337 -82.56,-82.56v0c0,-45.59663 36.96337,-82.56 82.56,-82.56v0c45.59663,0 82.56,36.96337 82.56,82.56v0c0,45.59663 -36.96337,82.56 -82.56,82.56z" fill="none"></path><path d="M86,172c-47.49649,0 -86,-38.50351 -86,-86v0c0,-47.49649 38.50351,-86 86,-86v0c47.49649,0 86,38.50351 86,86v0c0,47.49649 -38.50351,86 -86,86z" fill="none"></path><path d="M86,168.56c-45.59663,0 -82.56,-36.96337 -82.56,-82.56v0c0,-45.59663 36.96337,-82.56 82.56,-82.56v0c45.59663,0 82.56,36.96337 82.56,82.56v0c0,45.59663 -36.96337,82.56 -82.56,82.56z" fill="none"></path><path d="M86,172c-47.49649,0 -86,-38.50351 -86,-86v0c0,-47.49649 38.50351,-86 86,-86v0c47.49649,0 86,38.50351 86,86v0c0,47.49649 -38.50351,86 -86,86z" fill="none"></path><path d="M86,168.56c-45.59663,0 -82.56,-36.96337 -82.56,-82.56v0c0,-45.59663 36.96337,-82.56 82.56,-82.56v0c45.59663,0 82.56,36.96337 82.56,82.56v0c0,45.59663 -36.96337,82.56 -82.56,82.56z" fill="none"></path><path d="M86,172c-47.49649,0 -86,-38.50351 -86,-86v0c0,-47.49649 38.50351,-86 86,-86v0c47.49649,0 86,38.50351 86,86v0c0,47.49649 -38.50351,86 -86,86z" fill="none"></path><path d="M86,168.56c-45.59663,0 -82.56,-36.96337 -82.56,-82.56v0c0,-45.59663 36.96337,-82.56 82.56,-82.56v0c45.59663,0 82.56,36.96337 82.56,82.56v0c0,45.59663 -36.96337,82.56 -82.56,82.56z" fill="none"></path><path d="M86,172c-47.49649,0 -86,-38.50351 -86,-86v0c0,-47.49649 38.50351,-86 86,-86v0c47.49649,0 86,38.50351 86,86v0c0,47.49649 -38.50351,86 -86,86z" fill="none"></path><path d="M86,168.56c-45.59663,0 -82.56,-36.96337 -82.56,-82.56v0c0,-45.59663 36.96337,-82.56 82.56,-82.56v0c45.59663,0 82.56,36.96337 82.56,82.56v0c0,45.59663 -36.96337,82.56 -82.56,82.56z" fill="none"></path><path d="M86,172c-47.49649,0 -86,-38.50351 -86,-86v0c0,-47.49649 38.50351,-86 86,-86v0c47.49649,0 86,38.50351 86,86v0c0,47.49649 -38.50351,86 -86,86z" fill="none"></path><path d="M86,168.56c-45.59663,0 -82.56,-36.96337 -82.56,-82.56v0c0,-45.59663 36.96337,-82.56 82.56,-82.56v0c45.59663,0 82.56,36.96337 82.56,82.56v0c0,45.59663 -36.96337,82.56 -82.56,82.56z" fill="none"></path><path d="M86,172c-47.49649,0 -86,-38.50351 -86,-86v0c0,-47.49649 38.50351,-86 86,-86v0c47.49649,0 86,38.50351 86,86v0c0,47.49649 -38.50351,86 -86,86z" fill="none"></path><path d="M86,168.56c-45.59663,0 -82.56,-36.96337 -82.56,-82.56v0c0,-45.59663 36.96337,-82.56 82.56,-82.56v0c45.59663,0 82.56,36.96337 82.56,82.56v0c0,45.59663 -36.96337,82.56 -82.56,82.56z" fill="none"></path><path d="M86,172c-47.49649,0 -86,-38.50351 -86,-86v0c0,-47.49649 38.50351,-86 86,-86v0c47.49649,0 86,38.50351 86,86v0c0,47.49649 -38.50351,86 -86,86z" fill="none"></path><path d="M86,168.56c-45.59663,0 -82.56,-36.96337 -82.56,-82.56v0c0,-45.59663 36.96337,-82.56 82.56,-82.56v0c45.59663,0 82.56,36.96337 82.56,82.56v0c0,45.59663 -36.96337,82.56 -82.56,82.56z" fill="none"></path><path d="M86,172c-47.49649,0 -86,-38.50351 -86,-86v0c0,-47.49649 38.50351,-86 86,-86v0c47.49649,0 86,38.50351 86,86v0c0,47.49649 -38.50351,86 -86,86z" fill="none"></path><path d="M86,168.56c-45.59663,0 -82.56,-36.96337 -82.56,-82.56v0c0,-45.59663 36.96337,-82.56 82.56,-82.56v0c45.59663,0 82.56,36.96337 82.56,82.56v0c0,45.59663 -36.96337,82.56 -82.56,82.56z" fill="none"></path><path d="M86,172c-47.49649,0 -86,-38.50351 -86,-86v0c0,-47.49649 38.50351,-86 86,-86v0c47.49649,0 86,38.50351 86,86v0c0,47.49649 -38.50351,86 -86,86z" fill="none"></path><path d="M86,168.56c-45.59663,0 -82.56,-36.96337 -82.56,-82.56v0c0,-45.59663 36.96337,-82.56 82.56,-82.56v0c45.59663,0 82.56,36.96337 82.56,82.56v0c0,45.59663 -36.96337,82.56 -82.56,82.56z" fill="none"></path><path d="M86,172c-47.49649,0 -86,-38.50351 -86,-86v0c0,-47.49649 38.50351,-86 86,-86v0c47.49649,0 86,38.50351 86,86v0c0,47.49649 -38.50351,86 -86,86z" fill="none"></path><path d="M86,168.56c-45.59663,0 -82.56,-36.96337 -82.56,-82.56v0c0,-45.59663 36.96337,-82.56 82.56,-82.56v0c45.59663,0 82.56,36.96337 82.56,82.56v0c0,45.59663 -36.96337,82.56 -82.56,82.56z" fill="none"></path><path d="M86,172c-47.49649,0 -86,-38.50351 -86,-86v0c0,-47.49649 38.50351,-86 86,-86v0c47.49649,0 86,38.50351 86,86v0c0,47.49649 -38.50351,86 -86,86z" fill="none"></path><path d="M86,168.56c-45.59663,0 -82.56,-36.96337 -82.56,-82.56v0c0,-45.59663 36.96337,-82.56 82.56,-82.56v0c45.59663,0 82.56,36.96337 82.56,82.56v0c0,45.59663 -36.96337,82.56 -82.56,82.56z" fill="none"></path><path d="M86,172c-47.49649,0 -86,-38.50351 -86,-86v0c0,-47.49649 38.50351,-86 86,-86v0c47.49649,0 86,38.50351 86,86v0c0,47.49649 -38.50351,86 -86,86z" fill="none"></path><path d="M86,168.56c-45.59663,0 -82.56,-36.96337 -82.56,-82.56v0c0,-45.59663 36.96337,-82.56 82.56,-82.56v0c45.59663,0 82.56,36.96337 82.56,82.56v0c0,45.59663 -36.96337,82.56 -82.56,82.56z" fill="none"></path><path d="M86,172c-47.49649,0 -86,-38.50351 -86,-86v0c0,-47.49649 38.50351,-86 86,-86v0c47.49649,0 86,38.50351 86,86v0c0,47.49649 -38.50351,86 -86,86z" fill="none"></path><path d="M86,168.56c-45.59663,0 -82.56,-36.96337 -82.56,-82.56v0c0,-45.59663 36.96337,-82.56 82.56,-82.56v0c45.59663,0 82.56,36.96337 82.56,82.56v0c0,45.59663 -36.96337,82.56 -82.56,82.56z" fill="none"></path><path d="M86,172c-47.49649,0 -86,-38.50351 -86,-86v0c0,-47.49649 38.50351,-86 86,-86v0c47.49649,0 86,38.50351 86,86v0c0,47.49649 -38.50351,86 -86,86z" fill="none"></path><path d="M86,168.56c-45.59663,0 -82.56,-36.96337 -82.56,-82.56v0c0,-45.59663 36.96337,-82.56 82.56,-82.56v0c45.59663,0 82.56,36.96337 82.56,82.56v0c0,45.59663 -36.96337,82.56 -82.56,82.56z" fill="none"></path><path d="M86,172c-47.49649,0 -86,-38.50351 -86,-86v0c0,-47.49649 38.50351,-86 86,-86v0c47.49649,0 86,38.50351 86,86v0c0,47.49649 -38.50351,86 -86,86z" fill="none"></path><path d="M86,168.56c-45.59663,0 -82.56,-36.96337 -82.56,-82.56v0c0,-45.59663 36.96337,-82.56 82.56,-82.56v0c45.59663,0 82.56,36.96337 82.56,82.56v0c0,45.59663 -36.96337,82.56 -82.56,82.56z" fill="none"></path><path d="M86,172c-47.49649,0 -86,-38.50351 -86,-86v0c0,-47.49649 38.50351,-86 86,-86v0c47.49649,0 86,38.50351 86,86v0c0,47.49649 -38.50351,86 -86,86z" fill="none"></path><path d="M86,168.56c-45.59663,0 -82.56,-36.96337 -82.56,-82.56v0c0,-45.59663 36.96337,-82.56 82.56,-82.56v0c45.59663,0 82.56,36.96337 82.56,82.56v0c0,45.59663 -36.96337,82.56 -82.56,82.56z" fill="none"></path><path d="M86,172c-47.49649,0 -86,-38.50351 -86,-86v0c0,-47.49649 38.50351,-86 86,-86v0c47.49649,0 86,38.50351 86,86v0c0,47.49649 -38.50351,86 -86,86z" fill="none"></path><path d="M86,168.56c-45.59663,0 -82.56,-36.96337 -82.56,-82.56v0c0,-45.59663 36.96337,-82.56 82.56,-82.56v0c45.59663,0 82.56,36.96337 82.56,82.56v0c0,45.59663 -36.96337,82.56 -82.56,82.56z" fill="none"></path><path d="M86,172c-47.49649,0 -86,-38.50351 -86,-86v0c0,-47.49649 38.50351,-86 86,-86v0c47.49649,0 86,38.50351 86,86v0c0,47.49649 -38.50351,86 -86,86z" fill="none"></path><path d="M86,168.56c-45.59663,0 -82.56,-36.96337 -82.56,-82.56v0c0,-45.59663 36.96337,-82.56 82.56,-82.56v0c45.59663,0 82.56,36.96337 82.56,82.56v0c0,45.59663 -36.96337,82.56 -82.56,82.56z" fill="none"></path><path d="M86,172c-47.49649,0 -86,-38.50351 -86,-86v0c0,-47.49649 38.50351,-86 86,-86v0c47.49649,0 86,38.50351 86,86v0c0,47.49649 -38.50351,86 -86,86z" fill="none"></path><path d="M86,168.56c-45.59663,0 -82.56,-36.96337 -82.56,-82.56v0c0,-45.59663 36.96337,-82.56 82.56,-82.56v0c45.59663,0 82.56,36.96337 82.56,82.56v0c0,45.59663 -36.96337,82.56 -82.56,82.56z" fill="none"></path><path d="M86,172c-47.49649,0 -86,-38.50351 -86,-86v0c0,-47.49649 38.50351,-86 86,-86v0c47.49649,0 86,38.50351 86,86v0c0,47.49649 -38.50351,86 -86,86z" fill="none"></path><path d="M86,168.56c-45.59663,0 -82.56,-36.96337 -82.56,-82.56v0c0,-45.59663 36.96337,-82.56 82.56,-82.56v0c45.59663,0 82.56,36.96337 82.56,82.56v0c0,45.59663 -36.96337,82.56 -82.56,82.56z" fill="none"></path><path d="M86,172c-47.49649,0 -86,-38.50351 -86,-86v0c0,-47.49649 38.50351,-86 86,-86v0c47.49649,0 86,38.50351 86,86v0c0,47.49649 -38.50351,86 -86,86z" fill="none"></path><path d="M86,168.56c-45.59663,0 -82.56,-36.96337 -82.56,-82.56v0c0,-45.59663 36.96337,-82.56 82.56,-82.56v0c45.59663,0 82.56,36.96337 82.56,82.56v0c0,45.59663 -36.96337,82.56 -82.56,82.56z" fill="none"></path><path d="M86,172c-47.49649,0 -86,-38.50351 -86,-86v0c0,-47.49649 38.50351,-86 86,-86v0c47.49649,0 86,38.50351 86,86v0c0,47.49649 -38.50351,86 -86,86z" fill="none"></path><path d="M86,168.56c-45.59663,0 -82.56,-36.96337 -82.56,-82.56v0c0,-45.59663 36.96337,-82.56 82.56,-82.56v0c45.59663,0 82.56,36.96337 82.56,82.56v0c0,45.59663 -36.96337,82.56 -82.56,82.56z" fill="none"></path><path d="M86,172c-47.49649,0 -86,-38.50351 -86,-86v0c0,-47.49649 38.50351,-86 86,-86v0c47.49649,0 86,38.50351 86,86v0c0,47.49649 -38.50351,86 -86,86z" fill="none"></path><path d="M86,168.56c-45.59663,0 -82.56,-36.96337 -82.56,-82.56v0c0,-45.59663 36.96337,-82.56 82.56,-82.56v0c45.59663,0 82.56,36.96337 82.56,82.56v0c0,45.59663 -36.96337,82.56 -82.56,82.56z" fill="none"></path></g></svg>