<svg xmlns="http://www.w3.org/2000/svg" x="0px" y="0px"
width="40" height="40"
viewBox="0 0 172 172"
style=" fill:#000000;"><g fill="none" fill-rule="nonzero" stroke="none" stroke-width="1" stroke-linecap="butt" stroke-linejoin="miter" stroke-miterlimit="10" stroke-dasharray="" stroke-dashoffset="0" font-family="none" font-weight="none" font-size="none" text-anchor="none" style="mix-blend-mode: normal"><path d="M0,172v-172h172v172z" fill="none"></path><path d="M86,172c-47.49649,0 -86,-38.50351 -86,-86v0c0,-47.49649 38.50351,-86 86,-86v0c47.49649,0 86,38.50351 86,86v0c0,47.49649 -38.50351,86 -86,86z" fill="#d7cb99"></path><g fill="#ffffff"><path d="M116.16719,69.87494h-18.94688v-10.75c0,-5.547 0.4515,-9.04075 8.40113,-9.04075h10.0405v-17.0925c-4.88588,-0.50525 -9.79863,-0.7525 -14.71675,-0.74175c-14.58237,0 -25.22487,8.90637 -25.22487,25.25712v12.36787h-16.125v21.5l16.125,-0.00537v48.38038h21.5v-48.39112l16.47975,-0.00538z"></path></g></g></svg>