<svg xmlns="http://www.w3.org/2000/svg" x="0px" y="0px"
width="40" height="40"
viewBox="0 0 172 172"
style=" fill:#000000;"><g fill="none" fill-rule="nonzero" stroke="none" stroke-width="1" stroke-linecap="butt" stroke-linejoin="miter" stroke-miterlimit="10" stroke-dasharray="" stroke-dashoffset="0" font-family="none" font-weight="none" font-size="none" text-anchor="none" style="mix-blend-mode: normal"><path d="M0,172v-172h172v172z" fill="none"></path><path d="M86,172c-47.49649,0 -86,-38.50351 -86,-86v0c0,-47.49649 38.50351,-86 86,-86v0c47.49649,0 86,38.50351 86,86v0c0,47.49649 -38.50351,86 -86,86z" fill="#d7cb99"></path><g fill="#ffffff"><path d="M65.2568,35.2944c-16.46884,0 -29.9624,13.49356 -29.9624,29.9624v41.4864c0,16.46884 13.49356,29.9624 29.9624,29.9624h41.4864c16.46884,0 29.9624,-13.49356 29.9624,-29.9624v-41.4864c0,-16.46884 -13.49356,-29.9624 -29.9624,-29.9624zM65.2568,39.904h41.4864c13.95452,0 25.3528,11.39828 25.3528,25.3528v41.4864c0,13.95452 -11.39828,25.3528 -25.3528,25.3528h-41.4864c-13.95452,0 -25.3528,-11.39828 -25.3528,-25.3528v-41.4864c0,-13.95452 11.39828,-25.3528 25.3528,-25.3528zM113.6576,53.7328c-2.53528,0 -4.6096,2.07432 -4.6096,4.6096c0,2.53528 2.07432,4.6096 4.6096,4.6096c2.53528,0 4.6096,-2.07432 4.6096,-4.6096c0,-2.53528 -2.07432,-4.6096 -4.6096,-4.6096zM86,60.6472c-13.93356,0 -25.3528,11.41924 -25.3528,25.3528c0,13.93356 11.41924,25.3528 25.3528,25.3528c13.93356,0 25.3528,-11.41924 25.3528,-25.3528c0,-13.93356 -11.41924,-25.3528 -25.3528,-25.3528zM86,65.2568c11.41924,0 20.7432,9.32396 20.7432,20.7432c0,11.41924 -9.32396,20.7432 -20.7432,20.7432c-11.41924,0 -20.7432,-9.32396 -20.7432,-20.7432c0,-11.41924 9.32396,-20.7432 20.7432,-20.7432z"></path></g></g></svg>