<svg xmlns="http://www.w3.org/2000/svg" x="0px" y="0px"
width="40" height="40"
viewBox="0 0 172 172"
style=" fill:#000000;"><g fill="none" fill-rule="nonzero" stroke="none" stroke-width="1" stroke-linecap="butt" stroke-linejoin="miter" stroke-miterlimit="10" stroke-dasharray="" stroke-dashoffset="0" font-family="none" font-weight="none" font-size="none" text-anchor="none" style="mix-blend-mode: normal"><path d="M0,172v-172h172v172z" fill="none"></path><path d="M86,172c-47.49649,0 -86,-38.50351 -86,-86v0c0,-47.49649 38.50351,-86 86,-86v0c47.49649,0 86,38.50351 86,86v0c0,47.49649 -38.50351,86 -86,86z" fill="#d7cb99"></path><g fill="#ffffff"><path d="M137.20726,57.62011c-3.7749,1.67596 -7.82114,2.80125 -12.07488,3.31201c4.34153,-2.60173 7.67749,-6.7198 9.24171,-11.61998c-4.05422,2.40221 -8.56335,4.14999 -13.34382,5.09172c-3.83076,-4.08615 -9.2896,-6.63201 -15.33103,-6.63201c-11.60402,0 -21.01333,9.40133 -21.01333,21.00535c0,1.64403 0.19154,3.24817 0.55067,4.78845c-17.46189,-0.87788 -32.93658,-9.24172 -43.30358,-21.95506c-1.81163,3.11249 -2.84115,6.7198 -2.84115,10.56652c0,7.28643 3.70307,13.71892 9.34546,17.49382c-3.44769,-0.11173 -6.68787,-1.06144 -9.52104,-2.63365c0,0.08779 0,0.17558 0,0.26337c0,10.18345 7.24653,18.66699 16.84738,20.60631c-1.75577,0.47885 -3.61528,0.73423 -5.53066,0.73423c-1.35673,0 -2.67355,-0.12769 -3.95846,-0.38308c2.68153,8.33989 10.43883,14.42921 19.62468,14.5968c-7.18268,5.63441 -16.24084,8.98633 -26.08909,8.98633c-1.6999,0 -3.36788,-0.09577 -5.00393,-0.29529c9.2896,5.96961 20.33497,9.44123 32.20235,9.44123c38.64282,0 59.77587,-32.01081 59.77587,-59.76788c0,-0.90981 -0.02394,-1.82759 -0.05587,-2.72144c4.10211,-2.96086 7.66153,-6.66393 10.47873,-10.87777z"></path></g></g></svg>