<svg xmlns="http://www.w3.org/2000/svg" x="0px" y="0px"
width="40" height="40"
viewBox="0 0 172 172"
style=" fill:#000000;"><g fill="none" fill-rule="nonzero" stroke="none" stroke-width="1" stroke-linecap="butt" stroke-linejoin="miter" stroke-miterlimit="10" stroke-dasharray="" stroke-dashoffset="0" font-family="none" font-weight="none" font-size="none" text-anchor="none" style="mix-blend-mode: normal"><path d="M0,172v-172h172v172z" fill="none"></path><path d="M86,172c-47.49649,0 -86,-38.50351 -86,-86v0c0,-47.49649 38.50351,-86 86,-86v0c47.49649,0 86,38.50351 86,86v0c0,47.49649 -38.50351,86 -86,86z" fill="#d7cb99"></path><g fill="#ffffff"><path d="M51.64076,31.58804l8.04134,29.04258v13.93301h6.96208v-13.93301l8.1475,-29.04258h-7.01516l-2.9193,13.21645c-0.81981,3.85899 -1.34344,6.60087 -1.5835,8.23596h-0.21231c-0.3397,-2.28731 -0.86786,-5.05056 -1.5835,-8.28903l-2.81314,-13.16338zM82.91262,42.54867c-2.35978,0 -4.26535,0.46447 -5.71474,1.40657c-1.45392,0.93757 -2.51845,2.43784 -3.20238,4.4851c-0.6794,2.05179 -1.02617,4.75976 -1.02617,8.13865v4.55587c0,3.34265 0.30446,6.02578 0.90233,8.04134c0.59787,2.01555 1.59892,3.50287 3.0166,4.45856c1.41768,0.95569 3.374,1.43742 5.86513,1.44195c2.42319,0 4.35467,-0.47331 5.76783,-1.41542c1.41315,-0.9421 2.44011,-2.41604 3.06968,-4.44971c0.62958,-2.03367 0.94656,-4.7207 0.94656,-8.06788v-4.56472c0,-3.37888 -0.3254,-6.07844 -0.9731,-8.11211c-0.64769,-2.02914 -1.66559,-3.52941 -3.06969,-4.4851c-1.39956,-0.95569 -3.26303,-1.43311 -5.58205,-1.43311zM96.19985,43.16791v23.45169c0,2.9033 0.49879,5.04143 1.48619,6.40476c0.99192,1.36332 2.52546,2.0435 4.60895,2.0435c3.00295,0 5.25941,-1.4491 6.75862,-4.3524h0.15039l0.61925,3.83932h5.52897v-31.38686h-7.05939v24.92903c-0.27176,0.58428 -0.69002,1.06602 -1.25618,1.44195c-0.56617,0.38046 -1.15328,0.56617 -1.76927,0.56617c-0.72016,0 -1.23127,-0.30446 -1.53927,-0.90232c-0.30799,-0.59787 -0.46001,-1.58598 -0.46001,-2.99007v-23.04475zM82.75339,47.41416c0.98739,0 1.68937,0.52406 2.0789,1.56581c0.39405,1.03722 0.58386,2.68066 0.58386,4.93627v9.78407c0,2.32355 -0.19434,3.99225 -0.58386,5.01588c-0.38952,1.02363 -1.08718,1.53473 -2.07005,1.53926c-0.98739,0 -1.67642,-0.51563 -2.05235,-1.53926c-0.38046,-1.02363 -0.56617,-2.69686 -0.56617,-5.01588v-9.78407c0,-2.25108 0.20319,-3.89452 0.59271,-4.93627c0.38952,-1.03722 1.06128,-1.56581 2.01697,-1.56581zM47.50067,80.95954c-6.25501,0 -11.32333,5.06832 -11.32333,11.32333v36.23467c0,6.25501 5.06832,11.32333 11.32333,11.32333h76.99867c6.25501,0 11.32333,-5.06832 11.32333,-11.32333v-36.23467c0,-6.25501 -5.06832,-11.32333 -11.32333,-11.32333zM86.26539,91.3717h5.75013v13.96839h0.04423c0.51634,-1.01004 1.25158,-1.82107 2.20274,-2.44159c0.95116,-0.62052 1.98243,-0.92887 3.07853,-0.92887c1.41315,0 2.51569,0.37615 3.31738,1.12349c0.80169,0.74734 1.39376,1.96453 1.75158,3.63585c0.35782,1.67585 0.53963,3.99537 0.53963,6.96208v4.18432c0,3.94958 -0.47311,6.8521 -1.42427,8.71366c-0.95116,1.86156 -2.44301,2.79545 -4.45856,2.79545c-1.12327,0 -2.1457,-0.26214 -3.06968,-0.77848c-0.92398,-0.51634 -1.60805,-1.22632 -2.07005,-2.12313h-0.1327l-0.60155,2.50352h-4.92742zM50.59689,92.71634h17.68386v4.80357h-5.92706v31.46648h-5.83859v-31.46648h-5.91821zM113.70678,101.98732c2.04273,0 3.61901,0.3673 4.7151,1.11464c1.09157,0.75187 1.86934,1.92242 2.31775,3.50316c0.44387,1.58527 0.66347,3.77824 0.66347,6.57284v4.54702h-9.97869v1.34465c0,1.70303 0.04621,2.97464 0.15039,3.82162c0.10417,0.84699 0.31104,1.47274 0.62809,1.85773c0.31705,0.38952 0.80721,0.58386 1.4685,0.58386c0.89228,0 1.50487,-0.34657 1.84004,-1.03503c0.33064,-0.68846 0.51245,-1.84648 0.53963,-3.45893l5.13973,0.30077c0.02718,0.22647 0.04423,0.5523 0.04423,0.95541c0,2.45037 -0.66744,4.27993 -2.00812,5.48474c-1.34068,1.21386 -3.23784,1.82235 -5.68821,1.82235c-2.93954,0 -4.99691,-0.92547 -6.1836,-2.76891c-1.18669,-1.84344 -1.76927,-4.69975 -1.76927,-8.56327v-4.62664c0,-3.97675 0.61712,-6.87928 1.84004,-8.71366c1.22292,-1.83438 3.3142,-2.74237 6.28091,-2.74237zM76.71133,102.47387h5.97129v26.50367h-0.01769v0.00885h-4.67087l-0.51309,-3.24661h-0.1327c-1.26821,2.4549 -3.16947,3.68008 -5.7059,3.68008c-1.76191,0 -3.05447,-0.57006 -3.8924,-1.72504c-0.83793,-1.15045 -1.25618,-2.95928 -1.25618,-5.40512v-19.80699h5.98014v19.46198c0,1.17763 0.13107,2.03183 0.38924,2.53005c0.2627,0.50729 0.68896,0.75194 1.30042,0.75194c0.51634,0 1.01061,-0.15612 1.48619,-0.4777c0.48011,-0.31705 0.82604,-0.72278 1.06156,-1.21195zM113.58293,106.01241c-0.63411,0 -1.11195,0.18591 -1.41542,0.55732c-0.30347,0.37593 -0.50644,0.98853 -0.60155,1.84004c-0.10417,0.84699 -0.15039,2.14018 -0.15039,3.86585v1.90197h4.36125v-1.90197c0,-1.70303 -0.05485,-2.98717 -0.16808,-3.86585c-0.11323,-0.88322 -0.31578,-1.49539 -0.61924,-1.85774c-0.30347,-0.35782 -0.76793,-0.53962 -1.40657,-0.53962zM94.65173,106.20703c-0.57523,0 -1.11202,0.22802 -1.60119,0.69002c-0.48917,0.46199 -0.83573,1.05364 -1.03503,1.76927v15.04765c0.2627,0.46199 0.60063,0.80402 1.01733,1.03502c0.4167,0.22647 0.86864,0.35385 1.36234,0.35385c0.63411,0 1.13679,-0.22802 1.51272,-0.69001c0.37593,-0.46199 0.64217,-1.23934 0.79617,-2.33544c0.15853,-1.09157 0.23885,-2.60869 0.23885,-4.53818v-3.41469c0,-2.07443 -0.06327,-3.67577 -0.19462,-4.80357c-0.12682,-1.12327 -0.3639,-1.92631 -0.69002,-2.39736c-0.33064,-0.47105 -0.79511,-0.71655 -1.40657,-0.71655z"></path></g></g></svg>